<svg xmlns="http://www.w3.org/2000/svg" xmlns:xlink="http://www.w3.org/1999/xlink" width="1350" height="900"><rect width="1350" height="900" fill="#fff"/><rect width="1350" height="100" x="600" fill="#000"/><rect width="1350" height="100" x="600" y="200" fill="#000"/><rect width="1350" height="100" y="400" fill="#000"/><rect width="1350" height="100" y="600" fill="#000"/><rect width="1350" height="100" y="800" fill="#000"/><use x="-225" y="-122.5" xlink:href="#ermine"/><use x="-75" y="-122.5" xlink:href="#ermine"/><use x="75" y="-122.5" xlink:href="#ermine"/><use x="225" y="-122.5" xlink:href="#ermine"/><use x="-150" xlink:href="#ermine"/><g id="ermine" fill="#000"><use transform="rotate(-90 300,167.5)" xlink:href="#s"/><path id="s" d="M 300,167.5 l -9,-13.5 l 9,-22.5 l 9,22.5 z"/><use transform="rotate(90 300,167.5)" xlink:href="#s"/><path d="M 300,167.5 l 40.5,99 l -31.5,-13.5 l -9,18 l -9,-18 l -31.5,13.5 z"/></g><use x="150" xlink:href="#ermine"/><use x="-225" y="122.5" xlink:href="#ermine"/><use x="-75" y="122.5" xlink:href="#ermine"/><use x="75" y="122.5" xlink:href="#ermine"/><use x="225" y="122.5" xlink:href="#ermine"/></svg>