<svg xmlns="http://www.w3.org/2000/svg" xmlns:svg="http://www.w3.org/2000/svg" id="svg2" width="900" height="600" version="1.1"><metadata id="metadata26"/><rect id="rect4" width="900" height="600" fill="#009"/><g id="g8456"><g id="g8430" transform="translate(-1.359516,0)"><g id="g42469" fill="#ffed2a" fill-opacity="1" stroke-dasharray="none" stroke-miterlimit="4" stroke-width=".931" display="inline" transform="matrix(2.149265,0,0,2.149265,-1220.2811,-524.93237)"><g id="g42471" fill="#ffed2a" fill-opacity="1" stroke-dasharray="none" stroke-miterlimit="4" stroke-width=".931"><path id="path42473" fill="#ffed2a" fill-opacity="1" stroke="#b0900c" stroke-dasharray="none" stroke-linecap="butt" stroke-linejoin="miter" stroke-miterlimit="4" stroke-opacity="1" stroke-width=".931" d="m 643.76394,389.08739 c -1.29468,-7.11568 4.67341,-8.88102 6.55436,-23.59441 1.3627,-10.65947 -2.57649,-27.12145 -7.61242,-35.04123 -5.03593,-7.91979 -10.60278,-11.20968 -10.79793,-19.26184 -0.1071,-4.41888 1.91465,-8.50949 7.70091,-11.25705 4.39972,-2.08917 11.39383,-4.94682 14.30479,-9.19326 2.91095,4.24644 9.90506,7.10409 14.30478,9.19326 5.78626,2.74756 7.80801,6.83817 7.70092,11.25705 -0.19516,8.05216 -5.762,11.34205 -10.79793,19.26184 -5.03593,7.91978 -8.97512,24.38176 -7.61242,35.04123 1.88094,14.71339 7.84903,16.47873 6.55435,23.59441 -1.06479,5.85216 -6.22914,7.20652 -10.1497,12.65518 -3.92057,-5.44866 -9.08492,-6.80302 -10.14971,-12.65518 z"/><path id="path42477" fill="#ffed2a" fill-opacity="1" stroke="#b0900c" stroke-dasharray="none" stroke-linecap="butt" stroke-linejoin="miter" stroke-miterlimit="4" stroke-opacity="1" stroke-width=".931" d="m 653.91365,291.04535 0,110.12363"/></g><g id="g42481" fill="#ffed2a" fill-opacity="1" stroke-dasharray="none" stroke-miterlimit="4" stroke-width=".931" transform="matrix(-1,0,0,1,1307.8273,0)"><g id="g42483" fill="#ffed2a" fill-opacity="1" stroke-dasharray="none" stroke-miterlimit="4" stroke-width=".931"><path id="path42485" fill="#ffed2a" fill-opacity="1" stroke="#b0900c" stroke-dasharray="none" stroke-linecap="butt" stroke-linejoin="miter" stroke-miterlimit="4" stroke-opacity="1" stroke-width=".931" d="m 626.17665,360.00856 c 0,0 -17.22854,-0.84744 -18.194,-16.67783 -0.53536,-8.77803 7.98172,-17.47832 16.98106,-16.67782 17.03742,1.5155 24.09546,20.25991 22.74249,34.87182 -0.80459,8.6895 -4.62734,24.11188 -14.55519,24.56189 -6.57262,0.29793 -10.21981,-4.61881 -10.0067,-11.82609 1.24126,1.24126 3.82849,5.57642 9.62364,4.62663 3.54387,-0.58082 8.08424,-2.63958 9.48006,-15.54303 0.92707,-8.57017 -2.23825,-18.90823 -9.097,-18.49723 -11.32391,0.67857 -6.97436,15.16166 -6.97436,15.16166 z"/></g></g><g id="g42491" fill="#ffed2a" fill-opacity="1" stroke-dasharray="none" stroke-miterlimit="4" stroke-width=".931"><g id="g42493" fill="#ffed2a" fill-opacity="1" stroke-dasharray="none" stroke-miterlimit="4" stroke-width=".931"><path id="path42495" fill="#ffed2a" fill-opacity="1" stroke="#b0900c" stroke-dasharray="none" stroke-linecap="butt" stroke-linejoin="miter" stroke-miterlimit="4" stroke-opacity="1" stroke-width=".931" d="m 626.17665,360.00856 c 0,0 -17.22854,-0.84744 -18.194,-16.67783 -0.53536,-8.77803 7.98172,-17.47832 16.98106,-16.67782 17.03742,1.5155 24.09546,20.25991 22.74249,34.87182 -0.80459,8.6895 -4.62734,24.11188 -14.55519,24.56189 -6.57262,0.29793 -10.21981,-4.61881 -10.0067,-11.82609 1.24126,1.24126 3.82849,5.57642 9.62364,4.62663 3.54387,-0.58082 8.08424,-2.63958 9.48006,-15.54303 0.92707,-8.57017 -2.23825,-18.90823 -9.097,-18.49723 -11.32391,0.67857 -6.97436,15.16166 -6.97436,15.16166 z"/></g></g><g id="g42501" fill="#ffed2a" fill-opacity="1" stroke-dasharray="none" stroke-miterlimit="4" stroke-width=".931"><path id="path42503" fill="#ffed2a" fill-opacity="1" stroke="#b0900c" stroke-dasharray="none" stroke-dashoffset="0" stroke-linecap="round" stroke-miterlimit="4" stroke-opacity="1" stroke-width=".931" d="m 636.56803,359.4021 34.69124,0 4,4.24527 -4,4.24527 -34.69124,0 -4,-4.24527 z"/></g></g><g id="g8358" fill="#ffed2a" fill-opacity="1" stroke-dasharray="none" stroke-miterlimit="4" stroke-width=".931" display="inline" transform="matrix(2.149265,0,0,2.149265,-687.86731,-522.17375)"><g id="g8360" fill="#ffed2a" fill-opacity="1" stroke-dasharray="none" stroke-miterlimit="4" stroke-width=".931"><path id="path8362" fill="#ffed2a" fill-opacity="1" stroke="#b0900c" stroke-dasharray="none" stroke-linecap="butt" stroke-linejoin="miter" stroke-miterlimit="4" stroke-opacity="1" stroke-width=".931" d="m 643.76394,389.08739 c -1.29468,-7.11568 4.67341,-8.88102 6.55436,-23.59441 1.3627,-10.65947 -2.57649,-27.12145 -7.61242,-35.04123 -5.03593,-7.91979 -10.60278,-11.20968 -10.79793,-19.26184 -0.1071,-4.41888 1.91465,-8.50949 7.70091,-11.25705 4.39972,-2.08917 11.39383,-4.94682 14.30479,-9.19326 2.91095,4.24644 9.90506,7.10409 14.30478,9.19326 5.78626,2.74756 7.80801,6.83817 7.70092,11.25705 -0.19516,8.05216 -5.762,11.34205 -10.79793,19.26184 -5.03593,7.91978 -8.97512,24.38176 -7.61242,35.04123 1.88094,14.71339 7.84903,16.47873 6.55435,23.59441 -1.06479,5.85216 -6.22914,7.20652 -10.1497,12.65518 -3.92057,-5.44866 -9.08492,-6.80302 -10.14971,-12.65518 z"/><path id="path8364" fill="#ffed2a" fill-opacity="1" stroke="#b0900c" stroke-dasharray="none" stroke-linecap="butt" stroke-linejoin="miter" stroke-miterlimit="4" stroke-opacity="1" stroke-width=".931" d="m 653.91365,291.04535 0,110.12363"/></g><g id="g8366" fill="#ffed2a" fill-opacity="1" stroke-dasharray="none" stroke-miterlimit="4" stroke-width=".931" transform="matrix(-1,0,0,1,1307.8273,0)"><g id="g8368" fill="#ffed2a" fill-opacity="1" stroke-dasharray="none" stroke-miterlimit="4" stroke-width=".931"><path id="path8370" fill="#ffed2a" fill-opacity="1" stroke="#b0900c" stroke-dasharray="none" stroke-linecap="butt" stroke-linejoin="miter" stroke-miterlimit="4" stroke-opacity="1" stroke-width=".931" d="m 626.17665,360.00856 c 0,0 -17.22854,-0.84744 -18.194,-16.67783 -0.53536,-8.77803 7.98172,-17.47832 16.98106,-16.67782 17.03742,1.5155 24.09546,20.25991 22.74249,34.87182 -0.80459,8.6895 -4.62734,24.11188 -14.55519,24.56189 -6.57262,0.29793 -10.21981,-4.61881 -10.0067,-11.82609 1.24126,1.24126 3.82849,5.57642 9.62364,4.62663 3.54387,-0.58082 8.08424,-2.63958 9.48006,-15.54303 0.92707,-8.57017 -2.23825,-18.90823 -9.097,-18.49723 -11.32391,0.67857 -6.97436,15.16166 -6.97436,15.16166 z"/></g></g><g id="g8372" fill="#ffed2a" fill-opacity="1" stroke-dasharray="none" stroke-miterlimit="4" stroke-width=".931"><g id="g8374" fill="#ffed2a" fill-opacity="1" stroke-dasharray="none" stroke-miterlimit="4" stroke-width=".931"><path id="path8376" fill="#ffed2a" fill-opacity="1" stroke="#b0900c" stroke-dasharray="none" stroke-linecap="butt" stroke-linejoin="miter" stroke-miterlimit="4" stroke-opacity="1" stroke-width=".931" d="m 626.17665,360.00856 c 0,0 -17.22854,-0.84744 -18.194,-16.67783 -0.53536,-8.77803 7.98172,-17.47832 16.98106,-16.67782 17.03742,1.5155 24.09546,20.25991 22.74249,34.87182 -0.80459,8.6895 -4.62734,24.11188 -14.55519,24.56189 -6.57262,0.29793 -10.21981,-4.61881 -10.0067,-11.82609 1.24126,1.24126 3.82849,5.57642 9.62364,4.62663 3.54387,-0.58082 8.08424,-2.63958 9.48006,-15.54303 0.92707,-8.57017 -2.23825,-18.90823 -9.097,-18.49723 -11.32391,0.67857 -6.97436,15.16166 -6.97436,15.16166 z"/></g></g><g id="g8378" fill="#ffed2a" fill-opacity="1" stroke-dasharray="none" stroke-miterlimit="4" stroke-width=".931"><path id="path8380" fill="#ffed2a" fill-opacity="1" stroke="#b0900c" stroke-dasharray="none" stroke-dashoffset="0" stroke-linecap="round" stroke-miterlimit="4" stroke-opacity="1" stroke-width=".931" d="m 636.56803,359.4021 34.69124,0 4,4.24527 -4,4.24527 -34.69124,0 -4,-4.24527 z"/></g></g></g><g id="g8382" fill="#ffed2a" fill-opacity="1" stroke-dasharray="none" stroke-miterlimit="4" stroke-width=".931" display="inline" transform="matrix(2.149265,0,0,2.149265,-955.43372,-347.00134)"><g id="g8384" fill="#ffed2a" fill-opacity="1" stroke-dasharray="none" stroke-miterlimit="4" stroke-width=".931"><path id="path8386" fill="#ffed2a" fill-opacity="1" stroke="#b0900c" stroke-dasharray="none" stroke-linecap="butt" stroke-linejoin="miter" stroke-miterlimit="4" stroke-opacity="1" stroke-width=".931" d="m 643.76394,389.08739 c -1.29468,-7.11568 4.67341,-8.88102 6.55436,-23.59441 1.3627,-10.65947 -2.57649,-27.12145 -7.61242,-35.04123 -5.03593,-7.91979 -10.60278,-11.20968 -10.79793,-19.26184 -0.1071,-4.41888 1.91465,-8.50949 7.70091,-11.25705 4.39972,-2.08917 11.39383,-4.94682 14.30479,-9.19326 2.91095,4.24644 9.90506,7.10409 14.30478,9.19326 5.78626,2.74756 7.80801,6.83817 7.70092,11.25705 -0.19516,8.05216 -5.762,11.34205 -10.79793,19.26184 -5.03593,7.91978 -8.97512,24.38176 -7.61242,35.04123 1.88094,14.71339 7.84903,16.47873 6.55435,23.59441 -1.06479,5.85216 -6.22914,7.20652 -10.1497,12.65518 -3.92057,-5.44866 -9.08492,-6.80302 -10.14971,-12.65518 z"/><path id="path8388" fill="#ffed2a" fill-opacity="1" stroke="#b0900c" stroke-dasharray="none" stroke-linecap="butt" stroke-linejoin="miter" stroke-miterlimit="4" stroke-opacity="1" stroke-width=".931" d="m 653.91365,291.04535 0,110.12363"/></g><g id="g8390" fill="#ffed2a" fill-opacity="1" stroke-dasharray="none" stroke-miterlimit="4" stroke-width=".931" transform="matrix(-1,0,0,1,1307.8273,0)"><g id="g8392" fill="#ffed2a" fill-opacity="1" stroke-dasharray="none" stroke-miterlimit="4" stroke-width=".931"><path id="path8394" fill="#ffed2a" fill-opacity="1" stroke="#b0900c" stroke-dasharray="none" stroke-linecap="butt" stroke-linejoin="miter" stroke-miterlimit="4" stroke-opacity="1" stroke-width=".931" d="m 626.17665,360.00856 c 0,0 -17.22854,-0.84744 -18.194,-16.67783 -0.53536,-8.77803 7.98172,-17.47832 16.98106,-16.67782 17.03742,1.5155 24.09546,20.25991 22.74249,34.87182 -0.80459,8.6895 -4.62734,24.11188 -14.55519,24.56189 -6.57262,0.29793 -10.21981,-4.61881 -10.0067,-11.82609 1.24126,1.24126 3.82849,5.57642 9.62364,4.62663 3.54387,-0.58082 8.08424,-2.63958 9.48006,-15.54303 0.92707,-8.57017 -2.23825,-18.90823 -9.097,-18.49723 -11.32391,0.67857 -6.97436,15.16166 -6.97436,15.16166 z"/></g></g><g id="g8396" fill="#ffed2a" fill-opacity="1" stroke-dasharray="none" stroke-miterlimit="4" stroke-width=".931"><g id="g8398" fill="#ffed2a" fill-opacity="1" stroke-dasharray="none" stroke-miterlimit="4" stroke-width=".931"><path id="path8400" fill="#ffed2a" fill-opacity="1" stroke="#b0900c" stroke-dasharray="none" stroke-linecap="butt" stroke-linejoin="miter" stroke-miterlimit="4" stroke-opacity="1" stroke-width=".931" d="m 626.17665,360.00856 c 0,0 -17.22854,-0.84744 -18.194,-16.67783 -0.53536,-8.77803 7.98172,-17.47832 16.98106,-16.67782 17.03742,1.5155 24.09546,20.25991 22.74249,34.87182 -0.80459,8.6895 -4.62734,24.11188 -14.55519,24.56189 -6.57262,0.29793 -10.21981,-4.61881 -10.0067,-11.82609 1.24126,1.24126 3.82849,5.57642 9.62364,4.62663 3.54387,-0.58082 8.08424,-2.63958 9.48006,-15.54303 0.92707,-8.57017 -2.23825,-18.90823 -9.097,-18.49723 -11.32391,0.67857 -6.97436,15.16166 -6.97436,15.16166 z"/></g></g><g id="g8402" fill="#ffed2a" fill-opacity="1" stroke-dasharray="none" stroke-miterlimit="4" stroke-width=".931"><path id="path8404" fill="#ffed2a" fill-opacity="1" stroke="#b0900c" stroke-dasharray="none" stroke-dashoffset="0" stroke-linecap="round" stroke-miterlimit="4" stroke-opacity="1" stroke-width=".931" d="m 636.56803,359.4021 34.69124,0 4,4.24527 -4,4.24527 -34.69124,0 -4,-4.24527 z"/></g></g></g></svg>