<svg xmlns="http://www.w3.org/2000/svg" xmlns:xlink="http://www.w3.org/1999/xlink" width="520" height="320" viewBox="0 0 26 16"><defs><g id="s"><g id="f"><g id="t"><path id="o" fill="#fff" d="M0,-4.625V-4h0.3z" transform="rotate(18,0,-4.625)"/><use transform="scale(-1,1)" xlink:href="#o"/></g><use transform="rotate(72,0,-4)" xlink:href="#t"/></g><use transform="rotate(-72,0,-4)" xlink:href="#t"/><use transform="rotate(144,0,-4)" xlink:href="#f"/></g><clipPath id="c"><path d="M0,16V0L26,3 20,8 26,13z"/></clipPath></defs><g fill="#fff" stroke="#c1133d" clip-path="url(#c)"><path stroke-width="4" d="M26,3 0,0V16L26,13"/><path stroke-width="2" d="M0,8H26"/></g><path fill="#001c5a" d="M0,0V16L16,8z"/><g transform="translate(4.944272,8)"><circle r="3" fill="#fff"/><circle r="2" fill="#c1133d"/><g id="g"><use xlink:href="#s"/><use transform="rotate(30)" xlink:href="#s"/><use transform="rotate(-60)" xlink:href="#s"/><g id="h"><use transform="rotate(-30)" xlink:href="#s"/><use y="-2" transform="rotate(-39.560384)" xlink:href="#s"/><use y="-2" transform="rotate(-20.439616)" xlink:href="#s"/></g></g><use transform="rotate(240)" xlink:href="#g"/><use transform="rotate(120)" xlink:href="#h"/><use transform="rotate(150)" xlink:href="#s"/><use y="-4" transform="rotate(90)" xlink:href="#s"/></g></svg>