<svg xmlns="http://www.w3.org/2000/svg" xmlns:svg="http://www.w3.org/2000/svg" id="svg2" width="241.312" height="241.031" fill="#000" fill-opacity="1" stroke="#000" stroke-dasharray="none" stroke-dashoffset="0" stroke-linecap="square" stroke-linejoin="miter" stroke-miterlimit="10" stroke-opacity="1" stroke-width="1" color-interpolation="auto" color-rendering="auto" font-family="Dialog" font-size="12" font-style="normal" font-weight="normal" image-rendering="auto" shape-rendering="auto" text-rendering="auto" version="1.1"><metadata id="metadata13"/><g id="g5" transform="translate(-23.3438,-176.2031)"><g id="g7"><path id="path9" stroke="none" d="m 144,176.2031 q 32.2031,0 60.2578,16.2422 28.0547,16.2422 44.2266,44.2266 16.1718,27.9843 16.1718,60.1875 0,32.0625 -16.2421,60.0468 -16.2422,27.9844 -44.2969,44.1563 -28.0547,16.1719 -60.1172,16.1719 -32.0625,0 -60.1172,-16.1719 -28.0547,-16.1719 -44.2969,-44.1563 -16.2421,-27.9843 -16.2421,-60.0468 0,-32.2032 16.1718,-60.2578 Q 55.6875,208.5469 83.7422,192.375 111.7969,176.2031 144,176.2031 Z m 0,222.8907 q 41.9062,0 72.2109,-30.1641 30.3047,-30.1641 30.3047,-72.0703 0,-27.2813 -13.7812,-51.1172 -13.7813,-23.836 -37.6172,-37.6172 -23.836,-13.7812 -51.1172,-13.7812 -42.1875,0 -72.3516,30.2343 -30.164,30.2344 -30.164,72.2813 0,41.9062 30.3047,72.0703 30.3047,30.1641 72.2109,30.1641 z m -49.2188,-170.1563 46.4063,0 q 18.8437,0 31.2187,4.1484 12.375,4.1485 22.7813,19.9688 10.4063,15.8203 10.4063,42.1172 0,21.7969 -7.7344,37.8984 -7.7344,16.1016 -21.0235,22.9219 -13.289,6.8203 -33.6797,6.8203 l -48.375,0 0,-133.875 z m 17.8594,118.125 28.5469,0 q 12.0937,0 21.4453,-2.7422 9.3516,-2.7422 16.9453,-14.3437 7.5938,-11.6016 7.5938,-35.3672 0,-13.5 -3.375,-24.4688 -3.375,-10.9687 -10.8281,-16.9453 -7.4532,-5.9765 -14.3438,-7.2422 -6.8906,-1.2656 -18.1406,-1.2656 l -27.8438,0 0,102.375 z"/></g></g></svg>